<svg xmlns="http://www.w3.org/2000/svg" version="1.1" x="0px" y="0px" viewBox="0 0 289.3 282.5" xml:space="preserve"><style type="text/css">
	.st0{clip-path:url(#SVGID_2_);}
	.st1{clip-path:url(#SVGID_2_);fill:#FFFFFF;}
	.st2{clip-path:url(#SVGID_2_);fill:none;stroke:#FFFFFF;}
	.st3{fill:#FFFFFF;}
	.st5{font-size:12px;}
	.st6{display:none;}
	.st8{font-size:53px;}
	.st9{fill:none;stroke:#FFFFFF;stroke-width:0.5;}
</style><defs><rect x="6.8" width="282.5" height="282.5"/></defs><path class="st0" d="M148.1 282.5c78 0 141.2-63.2 141.2-141.2C289.3 63.2 226.1 0 148.1 0 70.1 0 6.8 63.2 6.8 141.2 6.8 219.2 70.1 282.5 148.1 282.5"/><path class="st1" d="M148.1 278.4c75.8 0 137.2-61.4 137.2-137.2C285.3 65.5 223.8 4 148.1 4 72.3 4 10.8 65.5 10.8 141.2 10.8 217 72.3 278.4 148.1 278.4"/><path class="st0" d="M148.1 262.7c67.1 0 121.4-54.4 121.4-121.4 0-67.1-54.4-121.4-121.4-121.4C81 19.8 26.6 74.2 26.6 141.2 26.6 208.3 81 262.7 148.1 262.7"/><circle class="st2" cx="148.1" cy="141.2" r="98"/><path class="st3" d="M70 72.5l-1.1 1.3 -1.6-1 -1.3 1.5 1.3 1.4 -1 1.2 -6.9-8.1 1.6-1.8L70 72.5zM65 73.3l1-1.2 -4.6-2.8L65 73.3z"/><path class="st3" d="M68.2 65.9l1.6-1.7 2.4 2.3c1.2 1.1 1.4 2.4 0.3 3.6 -1.1 1.2-2.4 1.1-3.6 0l-4-3.7c-1.2-1.1-1.4-2.4-0.3-3.6 1.1-1.2 2.4-1.1 3.6 0l0.7 0.7 -1.1 1.1L67 63.8c-0.5-0.5-1-0.5-1.3-0.1 -0.4 0.4-0.4 0.8 0.2 1.3l4.1 3.9c0.5 0.5 1 0.5 1.3 0.1 0.4-0.4 0.4-0.8-0.2-1.3l-1.4-1.3 -0.5 0.5L68.2 65.9z"/><path class="st3" d="M72.3 61.4l1.7-1.5 1 1.1 -1.7 1.5 2.1 2.3 2.1-1.9 1 1.1L75.2 67 68 59.3l3.3-3.1 1 1.1 -2.1 1.9L72.3 61.4z"/><path class="st3" d="M75.8 56.2l4.9 5.8 -1.1 1 -6.8-8 1.6-1.3 5.4 3.7 -4.1-4.8 1.1-0.9 6.8 8 -1.3 1.1L75.8 56.2z"/><path class="st3" d="M78.4 50.3l4.1-3 0.9 1.2 -1.4 1 5.3 7.3 -1.3 1 -5.3-7.3 -1.4 1L78.4 50.3z"/><path class="st3" d="M85.2 45.5l4.5 6.8c0.4 0.6 0.8 0.7 1.3 0.4 0.4-0.3 0.6-0.7 0.2-1.3l-4.5-6.8 1.3-0.9 4.4 6.7c0.9 1.4 0.8 2.7-0.6 3.6 -1.4 0.9-2.6 0.5-3.5-0.9l-4.4-6.7L85.2 45.5z"/><path class="st3" d="M98.2 50c-0.2-0.2-0.3-0.3-0.8-1.1l-0.8-1.4c-0.5-0.9-0.9-1-1.6-0.6l-0.5 0.3 2.1 3.7 -1.4 0.8 -5.1-9.2 2.2-1.2c1.5-0.8 2.5-0.5 3.3 0.9l0.4 0.7c0.5 0.9 0.6 1.7 0.1 2.4 0.9-0.1 1.5 0.5 2 1.4l0.8 1.4c0.2 0.4 0.4 0.8 0.8 1L98.2 50zM92.2 43l1.6 2.8 0.6-0.3c0.5-0.3 0.7-0.7 0.3-1.5l-0.5-0.9c-0.4-0.7-0.7-0.8-1.3-0.5L92.2 43z"/><path class="st3" d="M102.3 41.4l1.9-0.9 0.6 1.4 -1.9 0.9 1.8 3.9 -1.5 0.7 -4.4-9.5 4-1.8 0.6 1.4 -2.5 1.1L102.3 41.4z"/><path class="st3" d="M105.9 32.6l0.5 1.3 -1.3 0.5 -0.5-1.3L105.9 32.6zM106.2 34.6l2.9 7.6c0.3 0.7 0.7 0.8 1.2 0.6 0.5-0.2 0.7-0.6 0.4-1.3l-2.9-7.6 1.5-0.6 2.8 7.5c0.6 1.6 0.2 2.8-1.4 3.3 -1.5 0.6-2.6 0-3.2-1.6l-2.8-7.5L106.2 34.6zM108 31.8l0.5 1.3 -1.3 0.5 -0.5-1.3L108 31.8z"/><path class="st3" d="M117.8 41.7c-0.2-0.2-0.3-0.4-0.5-1.2l-0.5-1.6c-0.3-0.9-0.7-1.2-1.4-0.9l-0.5 0.2 1.3 4.1 -1.6 0.5 -3.2-10 2.4-0.8c1.6-0.5 2.6 0 3.1 1.5l0.3 0.8c0.3 1 0.2 1.8-0.4 2.4 0.9 0.1 1.4 0.7 1.7 1.8l0.5 1.5c0.2 0.5 0.3 0.8 0.6 1.2L117.8 41.7zM113.3 33.7l1 3.1 0.6-0.2c0.6-0.2 0.9-0.6 0.6-1.4l-0.3-1c-0.2-0.7-0.6-0.9-1.1-0.8L113.3 33.7z"/><path class="st3" d="M126.1 36.5l-0.5-7.5 2.2-0.5 2.2 10.3 -1.5 0.3 -1.6-7.4 0.5 7.6 -1.5 0.3 -2.8-7 1.6 7.3 -1.4 0.3 -2.2-10.3 2.2-0.5L126.1 36.5z"/><path class="st3" d="M137.2 37.8l-1.6 0.2 -0.5-1.8 -2 0.3 0 1.9 -1.5 0.2 0.2-10.6 2.4-0.3L137.2 37.8zM133 35l1.6-0.2 -1.5-5.1L133 35z"/><path class="st3" d="M142 37.4c-0.1-0.3-0.2-0.4-0.2-1.3l-0.1-1.6c-0.1-1-0.4-1.3-1.2-1.3l-0.6 0 0.3 4.3 -1.6 0.1 -0.7-10.5 2.5-0.2c1.7-0.1 2.5 0.6 2.6 2.3l0.1 0.8c0.1 1.1-0.2 1.8-0.9 2.2 0.8 0.3 1.2 1.1 1.2 2.2l0.1 1.6c0 0.5 0.1 0.9 0.3 1.3L142 37.4zM139.6 28.6l0.2 3.2 0.6 0c0.6 0 1-0.3 0.9-1.2l-0.1-1c0-0.7-0.3-1.1-0.9-1L139.6 28.6z"/><path class="st3" d="M147.1 33.1l-0.5 1 0 3.2 -1.7 0 -0.1-10.5 1.7 0 0.1 4.6 2.1-4.6 1.6 0 -2.2 4.7 2.4 5.8 -1.7 0L147.1 33.1z"/><path class="st3" d="M153.9 31.3l2.3 0.1 -0.1 1.5 -2.3-0.1 -0.2 3.1 2.8 0.2 -0.1 1.5 -4.5-0.3 0.7-10.5 4.5 0.3 -0.1 1.5 -2.8-0.2L153.9 31.3z"/><path class="st3" d="M160.1 30.3l-0.9 7.6 -1.5-0.2 1.2-10.4 2.1 0.2 1 6.4 0.7-6.2 1.5 0.2L163 38.3l-1.7-0.2L160.1 30.3z"/><path class="st3" d="M167.7 34.8l-0.7 0.8 -0.6 3.2 -1.6-0.3 2-10.3 1.6 0.3 -0.9 4.5 3-4.1 1.6 0.3 -3.1 4.2 1.2 6.1 -1.7-0.3L167.7 34.8z"/><path class="st3" d="M173 32.1c0.4-1.6 1.5-2.4 3.1-2 1.6 0.4 2.2 1.5 1.8 3.2l-1.3 5.3c-0.4 1.6-1.5 2.4-3.1 2 -1.6-0.4-2.2-1.5-1.8-3.2L173 32.1zM173.2 37.8c-0.2 0.7 0.1 1.1 0.6 1.2 0.5 0.1 0.9-0.1 1.1-0.8l1.3-5.5c0.2-0.7-0.1-1.1-0.6-1.2 -0.5-0.1-0.9 0.1-1.1 0.8L173.2 37.8z"/><path class="st3" d="M181.8 39.6l3.4-6.7 2.2 0.7 -3.2 10 -1.5-0.5L185 36l-3.4 6.8 -1.5-0.5 1.1-7.4 -2.3 7.1 -1.4-0.4 3.2-10 2.2 0.7L181.8 39.6z"/><path class="st3" d="M190.4 42.9l4-6.4 2.1 0.9 -4.2 9.6 -1.4-0.6 3-6.9 -4.1 6.4 -1.4-0.6 1.8-7.3 -3 6.8 -1.3-0.6 4.2-9.6 2.1 0.9L190.4 42.9z"/><path class="st3" d="M200.2 39.3l-3.8 7.2c-0.3 0.7-0.2 1.1 0.3 1.3 0.5 0.2 0.9 0.2 1.2-0.5l3.8-7.2 1.4 0.7 -3.7 7.1c-0.8 1.5-2 1.9-3.4 1.2 -1.4-0.8-1.7-2-0.9-3.5l3.7-7.1L200.2 39.3z"/><path class="st3" d="M204.7 45.1l-3.9 6.5 -1.3-0.8 5.3-9 1.8 1.1 -1.7 6.3 3.2-5.4 1.3 0.7 -5.3 9 -1.5-0.9L204.7 45.1z"/><path class="st3" d="M211.1 45.7l1.4 0.9 -5.8 8.8 -1.4-0.9L211.1 45.7z"/><path class="st3" d="M212.3 54.2l-1 0.5 -1.9 2.6 -1.3-1 6.2-8.5 1.3 1 -2.7 3.7 4.4-2.4 1.3 1 -4.6 2.4 -1.6 6.1 -1.4-1L212.3 54.2z"/><path class="st3" d="M217.6 63.8l-1.3-1.1 1-1.6 -1.5-1.3 -1.4 1.3 -1.2-1 8.1-6.9 1.8 1.6L217.6 63.8zM216.8 58.9l1.2 1 2.8-4.6L216.8 58.9z"/><path class="st3" d="M224.8 56.3l3.7 3.5 -1 1.1 -1.3-1.2 -6.1 6.6 -1.2-1.1 6.1-6.6 -1.3-1.2L224.8 56.3z"/><path class="st3" d="M229.7 61l1.2 1.2 -7.5 7.3 -1.2-1.2L229.7 61z"/><path class="st3" d="M230.3 65.3c1.3-1.1 2.6-1.1 3.6 0.1 1.1 1.2 0.9 2.5-0.3 3.6l-4.1 3.6c-1.3 1.1-2.6 1.1-3.6-0.1 -1.1-1.2-0.9-2.5 0.3-3.6L230.3 65.3zM227.3 70.2c-0.6 0.5-0.6 0.9-0.2 1.3 0.3 0.4 0.8 0.4 1.3 0l4.2-3.8c0.6-0.5 0.6-0.9 0.2-1.3 -0.3-0.4-0.8-0.5-1.3 0L227.3 70.2z"/><path class="st3" d="M235.7 72.1l-6 4.6 -0.9-1.2 8.3-6.4 1.3 1.6 -4 5.2 5-3.8 0.9 1.2 -8.3 6.4 -1-1.3L235.7 72.1z"/><path class="st3" d="M120.6 246.9c0.5-1.5 0.5-1.8 0.6-2.1 0.1-0.3 0.1-0.5-0.3-0.7 -0.1 0-0.2-0.1-0.3-0.1 0 0-0.1-0.1-0.1-0.1 0-0.1 0.1-0.1 0.2 0 0.5 0.1 1.1 0.4 1.2 0.4 0.1 0 2.2 0.7 2.4 0.7 0.2 0 0.4 0.1 0.5 0.1 0.1 0 0.1 0 0.2 0 0 0 0 0.1 0 0.1 0 0.1-0.1 0.2-0.2 0.4 0 0.1-0.2 0.5-0.2 0.6 0 0-0.1 0.1-0.1 0.1 -0.1 0-0.1-0.1 0-0.1 0-0.1 0.1-0.2 0-0.4 0-0.2-0.1-0.3-0.6-0.5 -0.2-0.1-1.3-0.4-1.4-0.5 0 0-0.1 0-0.1 0.1l-0.8 2.7c0 0.1 0 0.1 0 0.1 0.1 0 1.5 0.4 1.7 0.5 0.2 0 0.4 0.1 0.5 0 0.1 0 0.2-0.1 0.2-0.1 0 0 0.1 0 0 0.1 0 0.1-0.1 0.2-0.2 0.5 -0.1 0.2-0.2 0.5-0.2 0.6 0 0.1-0.1 0.2-0.1 0.2 0 0-0.1-0.1 0-0.1 0-0.1 0.1-0.2 0.1-0.3 0-0.1-0.1-0.3-0.4-0.5 -0.3-0.1-1.3-0.4-1.5-0.5 -0.1 0-0.1 0-0.1 0l-0.2 0.8c-0.1 0.3-0.4 1.5-0.5 1.7 -0.2 0.7 0 0.8 1 1.1 0.3 0.1 0.7 0.2 1 0.2 0.3 0 0.5-0.2 0.7-0.5 0.1-0.1 0.1-0.1 0.1-0.1 0.1 0 0 0.1 0 0.2 0 0.1-0.3 0.7-0.4 0.9 -0.1 0.2-0.2 0.2-0.6 0.1 -0.8-0.2-1.3-0.4-1.7-0.6 -0.4-0.2-0.7-0.2-0.8-0.3 0 0-0.2-0.1-0.4-0.1 -0.2 0-0.4-0.1-0.6-0.2 -0.1 0-0.2-0.1-0.1-0.1 0 0 0-0.1 0.1-0.1 0.1 0 0.2 0 0.3 0 0.2 0 0.3-0.2 0.4-0.4 0.2-0.4 0.4-1.2 0.7-2.1L120.6 246.9z"/><path class="st3" d="M124.8 252.8c-0.1-0.1-0.1-0.1-0.1-0.4 0.1-0.5 0.2-0.9 0.3-1 0-0.1 0.1-0.2 0.1-0.1 0.1 0 0.1 0.1 0.1 0.1 0 0.1 0 0.2 0 0.4 0 0.8 0.7 1.2 1.4 1.3 1 0.2 1.7-0.2 1.8-1 0.2-0.7-0.2-1.1-0.9-2l-0.4-0.5c-0.9-1.1-1.2-1.8-1-2.5 0.3-1.2 1.3-1.7 2.7-1.4 0.4 0.1 0.8 0.2 1 0.3 0.2 0.1 0.3 0.1 0.4 0.1 0.1 0 0.1 0 0.1 0.1 0 0-0.1 0.4-0.3 1 0 0.2-0.1 0.2-0.1 0.2 -0.1 0-0.1-0.1-0.1-0.1 0-0.1 0-0.4 0-0.5 0-0.1-0.3-0.6-1.2-0.8 -0.8-0.2-1.5 0.1-1.6 0.8 -0.1 0.6 0.1 1.1 1 2l0.2 0.3c1.1 1.1 1.4 1.9 1.2 2.8 -0.1 0.6-0.5 1.2-1.3 1.5 -0.5 0.2-1.2 0.1-1.7 0C125.7 253.3 125.1 253.1 124.8 252.8z"/><path class="st3" d="M134.5 251.7c-0.1 1-0.2 1.8-0.3 2.2 0 0.3 0 0.5 0.3 0.6 0.1 0 0.4 0.1 0.5 0.1 0.1 0 0.1 0.1 0.1 0.1 0 0-0.1 0.1-0.2 0.1 -0.6-0.1-1.2-0.2-1.3-0.2 0 0-0.8-0.1-1.1-0.1 -0.1 0-0.2 0-0.2-0.1 0 0 0-0.1 0.1-0.1 0.1 0 0.2 0 0.3 0 0.2 0 0.3-0.2 0.4-0.5 0.1-0.4 0.2-1.2 0.4-2.2l0.6-4.2 -1.5-0.2c-0.7-0.1-0.9 0-1.1 0.2 -0.1 0.2-0.2 0.2-0.2 0.3 0 0.1-0.1 0.1-0.1 0.1 0 0-0.1 0-0.1-0.1 0-0.1 0.3-1 0.4-1.1 0-0.1 0.1-0.2 0.1-0.2 0.1 0 0.2 0.1 0.4 0.2 0.3 0.1 0.7 0.1 0.8 0.2l3.9 0.6c0.3 0 0.6 0.1 0.8 0.1 0.2 0 0.3 0 0.3 0 0 0 0 0.1 0 0.1 0 0.3-0.2 1-0.2 1.1 0 0.1-0.1 0.1-0.1 0.1 0 0-0.1 0-0.1-0.2l0-0.1c0-0.3-0.2-0.6-1.2-0.7l-1.3-0.2L134.5 251.7z"/><text transform="matrix(0.9935 0.1136 -0.1136 0.9935 135.9693 254.8458)" class="st3 st4 st5">.</text><path class="st3" d="M143.4 255.5c-0.1 0-0.2-0.1-0.2-0.2 0-0.1 0.1-0.2 0.2-0.3 2.4-2.1 4.2-3.7 4.3-6 0-1.7-1.1-2.2-1.9-2.2 -0.6 0-0.9 0.1-1.3 0.4 -0.3 0.3-0.4 0.7-0.4 1.2 0 0.1-0.1 0.2-0.1 0.2 0 0-0.1 0-0.1-0.2 0-0.1-0.1-1.1-0.1-1.5 0-0.1 0-0.1 0.1-0.2 0.4-0.2 1.1-0.4 2.1-0.4 1.8 0 2.7 1.2 2.7 2.5 0 2.5-2.7 4.7-4.2 5.9 -0.1 0 0 0.1 0 0.1l0.9 0c0.2 0 1.6 0 2.1 0 0.9-0.1 1.3-0.5 1.4-1.1 0-0.1 0.1-0.2 0.1-0.2 0.1 0 0.1 0.1 0.1 0.2 0 0.2-0.3 1.2-0.4 1.6 -0.1 0.3-0.3 0.4-0.8 0.3L143.4 255.5z"/><path class="st3" d="M152.6 246.2c2.2-0.1 3 2.7 3.1 4.2 0.2 2.8-0.8 5-2.7 5.2 -1.9 0.1-3-2.1-3.1-4.2C149.7 248.6 150.7 246.3 152.6 246.2zM153.2 255.2c1.1-0.1 1.7-1.8 1.6-4.1 -0.1-2.3-1-4.4-2.4-4.4 -1.1 0.1-1.7 1.7-1.5 4.1C151 252.9 151.7 255.2 153.2 255.2z"/><path class="st3" d="M160.1 251.1c0.1 1.2 0.3 2.2 0.4 2.7 0.1 0.4 0.2 0.5 0.5 0.6 0.2 0 0.7 0 0.8 0 0 0 0.1 0 0.1 0.1 0 0.1-0.1 0.1-0.2 0.1 -0.9 0.1-1.7 0.2-1.7 0.2 -0.1 0-1.1 0.2-1.8 0.2 -0.1 0-0.2 0-0.2-0.1 0 0 0-0.1 0.1-0.1 0.1 0 0.7-0.1 0.9-0.2 0.4-0.1 0.4-0.3 0.4-0.7 0-0.5-0.1-1.6-0.3-2.7l-0.2-2.1c-0.1-0.6-0.1-1.2-0.2-1.8 0-0.2-0.1-0.4-0.3-0.3 -0.2 0-1 0.5-1.3 0.7 -0.1 0-0.1 0.1-0.1 0.1 0 0-0.1-0.1-0.1-0.1 0 0 0-0.1 0.1-0.1l2.1-1.8c0.1-0.1 0.2-0.2 0.3-0.2 0.1 0 0.1 0.1 0.2 0.2 0 0.1 0.1 1.3 0.3 3.1L160.1 251.1z"/><path class="st3" d="M167.6 250.1l0.9-0.2c0.3-0.1 0.4-0.2 0.5-0.2 0.1 0 0.1 0.1 0.1 0.1 0 0.1 0 0.3 0 0.5 0 0.1-0.1 0.2-0.2 0.2l-1.1 0.2c0.1 0.4 0.2 1.3 0.4 1.8 0.1 0.3 0.2 0.5 0.6 0.6 0.2 0 0.4 0 0.5-0.1 0.1 0 0.1 0 0.1 0.1 0 0.1 0 0.1-0.2 0.1 -0.6 0.1-1.4 0.2-1.5 0.2 -0.1 0-0.7 0.2-1.4 0.3 -0.1 0-0.2 0-0.2 0 0 0 0-0.1 0.1-0.1 0.1 0 0.4-0.1 0.5-0.1 0.4-0.1 0.4-0.4 0.4-0.8 -0.1-0.5-0.2-1.4-0.3-1.8l-3.6 0.7c-0.1 0-0.3 0-0.3-0.1 0-0.1 0-0.2 0.1-0.3 0.1-0.1 2.9-6 3.2-6.6 0.1-0.1 0.1-0.2 0.2-0.3 0.1 0 0.1 0.1 0.2 0.2 0 0.2 0.2 1.1 0.3 1.8L167.6 250.1zM165.9 246.1L165.9 246.1c-0.1 0.3-2 4.4-2.2 4.7l3-0.6L165.9 246.1z"/><rect x="40.9" y="130.9" class="st6" width="214.4" height="52.9"/><path class="st3" d="M116 108h8v5.3h-8v10.9H126v5.3h-15.9V92.4H126v5.3H116V108z"/><path class="st3" d="M146.9 101.6v4.8c0 5.9-2.9 9.2-8.7 9.2h-2.8v13.9h-5.8V92.4h8.6C144 92.4 146.9 95.6 146.9 101.6zM135.5 97.7v12.6h2.8c1.9 0 2.9-0.8 2.9-3.5v-5.6c0-2.6-1-3.5-2.9-3.5H135.5z"/><path class="st3" d="M149.6 92.4h5.8v37.1h-5.8V92.4z"/><path class="st3" d="M176.6 115.7v4.9c0 5.9-3 9.3-8.7 9.3 -5.7 0-8.7-3.4-8.7-9.3v-19.3c0-5.9 3-9.3 8.7-9.3 5.7 0 8.7 3.4 8.7 9.3v3.6h-5.5v-4c0-2.6-1.2-3.7-3-3.7s-3 1-3 3.7v20c0 2.7 1.2 3.6 3 3.6s3-1 3-3.6v-5.3H176.6z"/><path class="st3" d="M180.9 121.3l-0.7-13.4V92.4h5.8v15.5l-0.7 13.4H180.9zM185.9 123.9v5.6h-5.6v-5.6H185.9z"/><text transform="matrix(1 0 0 1 188.093 129.5069)" class="st3 st7 st8"/><path class="st3" d="M34.9 138.4h9.2c5.8 0 8.7 3.2 8.7 9.2v18.8c0 5.9-2.9 9.2-8.7 9.2h-9.2V138.4zM40.8 143.7v26.5H44c1.9 0 3-1 3-3.6v-19.3c0-2.7-1.1-3.6-3-3.6H40.8z"/><path class="st3" d="M62.4 154h8v5.3h-8v10.9h10.1v5.3H56.5v-37.1h15.9v5.3H62.4V154z"/><path class="st3" d="M84.8 168.7l4.5-30.3h5.4l-5.7 37.1h-8.7l-5.7-37.1h5.9L84.8 168.7z"/><path class="st3" d="M103.2 154h8v5.3h-8v10.9h10.1v5.3H97.4v-37.1h15.9v5.3h-10.1V154z"/><path class="st3" d="M116.9 138.4h5.8v31.8h9.6v5.3h-15.4V138.4z"/><path class="st3" d="M134.3 147.3c0-5.9 3.1-9.3 8.9-9.3 5.7 0 8.9 3.4 8.9 9.3v19.3c0 5.9-3.1 9.3-8.9 9.3 -5.7 0-8.9-3.4-8.9-9.3V147.3zM140.2 167c0 2.7 1.2 3.7 3 3.7 1.9 0 3-1 3-3.7v-20c0-2.6-1.2-3.7-3-3.7 -1.9 0-3 1-3 3.7V167z"/><path class="st3" d="M173.1 147.6v4.8c0 5.9-2.9 9.2-8.7 9.2h-2.8v13.9h-5.8v-37.1h8.6C170.2 138.4 173.1 141.6 173.1 147.6zM161.6 143.7v12.6h2.8c1.9 0 2.9-0.8 2.9-3.5v-5.6c0-2.6-1-3.5-2.9-3.5H161.6z"/><path class="st3" d="M188.1 164.8l4-26.3h8.1v37.1h-5.5v-26.6l-4 26.6h-5.5l-4.3-26.2v26.2h-5.1v-37.1h8.1L188.1 164.8z"/><path class="st3" d="M210.3 154h8v5.3h-8v10.9h10.1v5.3h-15.9v-37.1h15.9v5.3h-10.1V154z"/><path class="st3" d="M229.2 148.6v26.9h-5.2v-37.1h7.3l6 22.2v-22.2h5.2v37.1h-6L229.2 148.6z"/><path class="st3" d="M244.9 138.4h18v5.3h-6.1v31.8H251v-31.8h-6.1V138.4z"/><line class="st9" x1="75.6" y1="187.9" x2="221" y2="187.9"/><line class="st9" x1="86.7" y1="199.5" x2="209.9" y2="199.5"/><line class="st9" x1="105.8" y1="211.2" x2="190.7" y2="211.2"/><line class="st9" x1="121.6" y1="222.8" x2="175" y2="222.8"/></svg>
